<?xml version="1.0" encoding="utf-8"?>
<!-- Generator: Adobe Illustrator 24.0.1, SVG Export Plug-In . SVG Version: 6.00 Build 0)  -->
<svg version="1.1" id="Layer_1" xmlns="http://www.w3.org/2000/svg" xmlns:xlink="http://www.w3.org/1999/xlink" x="0px" y="0px"
	 viewBox="0 0 401 71.8" style="enable-background:new 0 0 401 71.8;" xml:space="preserve">
<style type="text/css">
	.st0{clip-path:url(#SVGID_2_);}
	.st1{fill:#D4B0A5;}
	.st2{clip-path:url(#SVGID_4_);}
	.st3{fill:#939580;}
</style>
<g>
	<defs>
		<rect id="SVGID_1_" x="21.7" y="4.8" width="117" height="63.1"/>
	</defs>
	<clipPath id="SVGID_2_">
		<use xlink:href="#SVGID_1_"  style="overflow:visible;"/>
	</clipPath>
	<g class="st0">
		<path class="st1" d="M125.9,41.2c1.9-2.7,2-6.5,0.1-9.4c-1.8-2.9-5.2-4.5-8.5-4.5c-3.4-0.1-6.7,1.5-8.8,4.2
			c-2.1,2.7-3,6.1-2.7,9.4c0.3,3.3,1.8,6.5,4.2,8.8c2.4,2.3,5.6,3.6,8.8,4.1c1.6,0.2,3.3,0.2,4.9,0c1.6-0.2,3.2-0.8,4.7-1.4
			c1.5-0.7,2.8-1.6,4-2.7c1.2-1.1,2.2-2.4,3.1-3.7c0.1-0.1,0-0.3-0.1-0.3c-0.1-0.1-0.2,0-0.3,0.1l0,0c-0.9,1.3-1.9,2.5-3.1,3.5
			c-1.2,1-2.5,1.8-3.9,2.5c-1.4,0.6-2.9,1-4.5,1.2c-1.5,0.2-3.1,0.2-4.6-0.1c-3-0.5-5.9-1.8-8.1-3.9c-2.2-2.1-3.5-5-3.8-8
			c-0.2-3,0.7-6.1,2.5-8.5c1.8-2.3,4.8-3.8,7.8-3.8c3,0,6.1,1.3,7.8,3.8c0.8,1.2,1.3,2.7,1.4,4.2c0.1,1.5-0.3,3.1-1.1,4.4
			c-0.1,0.1,0,0.2,0.1,0.3C125.7,41.4,125.9,41.3,125.9,41.2z"/>
		<path class="st1" d="M117,52.8c0-0.1-0.1-0.3-0.2-0.3c-0.2-0.1-0.1,0-0.2-0.1l-0.2-0.1l-0.4-0.2c-0.3-0.1-0.6-0.2-0.9-0.4
			c-0.6-0.3-1.1-0.5-1.7-0.8c-1.1-0.6-2.2-1.3-3.2-2c-2.1-1.5-3.9-3.2-5.4-5.2c-1.5-2-2.6-4.3-3.2-6.7c-0.6-2.4-0.8-4.9-1-7.5
			c-0.2-2.5-0.3-5.2-1.2-7.7c-0.4-1.3-1.1-2.5-2-3.5c-0.9-1-1.9-1.9-3-2.6c-2.2-1.4-4.7-2.3-7.2-3.1c-2.5-0.7-5-1.2-7.5-1.7h0
			l-0.1,0.6c1.1,0.3,2.2,1.1,3,2.1c0.8,1,1.3,2.1,1.8,3.3c0.9,2.4,1.2,5,1.3,7.5c0.1,1.3,0,2.6,0.1,3.9c0.1,1.3,0,2.7,0.3,4
			c0.3,2.7,1.2,5.3,2.5,7.7c1.3,2.4,3.2,4.4,5.3,6.1c0.6,0.4,1.1,0.9,1.7,1.2l1.7,1c1.2,0.6,2.4,1.2,3.7,1.6c2.5,1,5.1,1.6,7.7,2.1
			l2,0.3l2,0.2l1,0.1c0.4,0,0.8,0,1.1,0C115.6,52.9,116.3,52.8,117,52.8z M116.4,52.7c-0.7-0.1-1.3-0.3-1.8-0.5
			c-0.3-0.1-0.5-0.1-0.8-0.1l-1-0.2l-1.9-0.3l-1.9-0.4c-2.5-0.6-5.1-1.3-7.4-2.3c-2.4-1-4.7-2.2-6.6-3.8l-0.8-0.6l-0.7-0.7l-0.7-0.7
			c-0.2-0.2-0.4-0.4-0.6-0.7L91,41c-0.3-0.5-0.6-1.1-1-1.6c-0.4-0.5-0.6-1.1-0.8-1.7c-0.2-0.6-0.5-1.1-0.7-1.8L88,34.2
			c-0.1-0.6-0.2-1.3-0.3-1.9c-0.3-1.2-0.2-2.5-0.3-3.8c-0.1-1.3,0-2.7-0.2-4c-0.2-2.7-0.7-5.3-1.7-7.9c-0.5-1.3-1.2-2.4-2.2-3.5
			c-0.9-1-2.1-1.9-3.6-2c-0.2,0-0.3,0.1-0.3,0.3c0,0.2,0.1,0.3,0.2,0.3h0c2.5,0.5,5,1.2,7.4,1.9c2.4,0.8,4.8,1.7,6.8,3.1
			c1,0.7,2,1.5,2.7,2.4c0.8,0.9,1.4,2,1.8,3.1c0.8,2.3,0.9,4.9,1.1,7.4c0.2,2.5,0.4,5.1,1.1,7.7c0.6,2.5,1.8,5,3.4,7
			c1.6,2.1,3.6,3.8,5.7,5.3c1.1,0.7,2.2,1.4,3.4,1.9c0.6,0.3,1.2,0.5,1.8,0.8c0.3,0.1,0.6,0.2,0.9,0.3l0.5,0.2l0.2,0.1
			c0,0,0.1,0.1,0.1,0C116.4,52.9,116.4,52.8,116.4,52.7z"/>
		<path class="st1" d="M101.7,49.1c-1.8-0.6-3.7-1.6-5.3-2.7c-1.7-1.1-3.3-2.4-4.8-3.7c-2.9-2.8-5.4-6-7.3-9.6
			c-1-1.8-1.8-3.6-2.5-5.5c-0.7-1.9-1.3-3.9-1.8-5.9c-0.6-2-1.2-4-2-6c-0.8-2-2-3.9-3.5-5.4c-1.5-1.6-3.2-2.9-5.2-3.9
			c-1.9-1.1-4.1-1.7-6.3-1.7c-2.2,0-4.4,0.7-6.2,1.9c-1.8,1.2-3.3,3-4.1,5c-0.8,2-0.8,4.4,0.2,6.4c0.5,1,1.2,1.9,2,2.6
			c0.8,0.7,1.7,1.3,2.8,1.6c2.1,0.7,4.6,0.1,6.2-1.5c0.8-0.8,1.3-1.9,1.1-3.1c-0.1-1.2-0.9-2.1-1.7-2.8c-0.1-0.1-0.4-0.1-0.5,0
			c-0.1,0.1-0.1,0.4,0,0.5l0,0c0.7,0.6,1.3,1.4,1.4,2.4c0.1,0.9-0.3,1.8-1,2.5c-1.3,1.4-3.5,1.9-5.3,1.2c-0.9-0.3-1.7-0.9-2.5-1.5
			c-0.7-0.6-1.4-1.4-1.8-2.3C53,16,53,13.9,53.8,12.1c0.7-1.8,2.1-3.4,3.7-4.4C59.1,6.6,61.1,6,63,6c2,0,3.9,0.6,5.6,1.6
			c1.8,1,3.3,2.2,4.7,3.7c2.7,2.9,3.8,6.9,4.9,10.9c0.5,2,1.1,4,1.8,6c0.7,2,1.5,3.9,2.5,5.8c2,3.7,4.7,7.1,7.8,10
			c3.2,2.8,6.8,5.2,11,6.4c0.3,0.1,0.7-0.1,0.8-0.4C102.2,49.6,102.1,49.3,101.7,49.1L101.7,49.1z"/>
		<path class="st1" d="M138,37c-0.8,4.6-2.9,9-5.9,12.5c-3,3.6-7,6.2-11.4,7.7c-2.2,0.7-4.5,1.3-6.8,1.5c-0.6,0.1-1.2,0.1-1.7,0.2
			c-0.6,0-1.2,0.1-1.7,0.1c-1.2,0-2.3,0.1-3.5,0c-4.7-0.2-9.4-0.8-13.8-2.2c-4.5-1.3-8.8-3.3-12.8-5.7c-4-2.4-7.8-5.3-11.6-8.2
			c-3.8-2.9-7.6-5.9-11.8-8.3c-2.1-1.2-4.4-2.2-6.8-2.8c-0.6-0.2-1.2-0.3-1.8-0.4c-0.6-0.1-1.2-0.2-1.8-0.3C45.8,31,45.2,31,44.5,31
			l-1.9,0c-5,0.1-9.9,2-13.7,5.2c-3.8,3.2-6.4,7.8-7.1,12.7c-0.7,4.9,0.8,10.2,4.3,13.8c3.4,3.6,8.4,5.7,13.4,5.2
			c0.6,0,1.2-0.2,1.8-0.3c0.6-0.2,1.2-0.3,1.8-0.6c1.2-0.4,2.2-1.1,3.2-1.8c2-1.5,3.5-3.6,4.3-5.9c0.4-1.2,0.7-2.4,0.8-3.6
			c0.1-1.2,0-2.5-0.4-3.7c-0.7-2.4-2.2-4.5-4.3-5.9c-2.1-1.4-4.6-2.1-7.1-1.7c-2.5,0.4-4.7,1.8-6,3.9c-0.6,1.1-1.1,2.2-1.2,3.5
			c-0.2,1.2,0,2.5,0.5,3.6c1,2.3,3.3,3.9,5.8,4c0.1,0,0.2-0.1,0.3-0.2c0-0.1-0.1-0.2-0.2-0.3c-2.3-0.2-4.4-1.7-5.3-3.8
			c-0.5-1.1-0.6-2.2-0.4-3.4c0.1-1.1,0.5-2.2,1.2-3.2c1.2-1.9,3.3-3.3,5.6-3.6c2.3-0.3,4.7,0.4,6.5,1.7c1.9,1.3,3.3,3.3,3.9,5.5
			c0.3,1.1,0.4,2.3,0.3,3.4c-0.1,1.1-0.3,2.3-0.8,3.4c-0.8,2.1-2.2,4.1-4.1,5.4c-0.9,0.7-1.9,1.3-3,1.7c-0.5,0.2-1.1,0.4-1.6,0.5
			c-0.6,0.1-1.1,0.2-1.7,0.3c-2.3,0.2-4.6-0.2-6.7-1.1c-2.1-0.9-4-2.2-5.6-3.9c-3.1-3.4-4.5-8.2-3.8-12.7c0.7-4.5,3.1-8.7,6.7-11.6
			c3.5-2.9,8.1-4.5,12.7-4.6l1.7,0c0.6,0.1,1.2,0.1,1.7,0.1c0.6,0.1,1.1,0.2,1.7,0.3c0.6,0.1,1.1,0.2,1.7,0.4
			c2.2,0.6,4.3,1.6,6.4,2.7c4.1,2.3,7.8,5.3,11.5,8.2c3.8,2.9,7.6,5.9,11.8,8.4c4.2,2.5,8.6,4.6,13.3,5.9c4.7,1.4,9.5,2,14.4,2.1
			c4.9,0.1,9.8-0.5,14.4-2.2c4.6-1.7,8.8-4.6,11.9-8.4c3-3.9,5-8.5,5.6-13.3c0-0.2-0.1-0.4-0.3-0.4C138.2,36.6,138,36.8,138,37
			L138,37z"/>
		<path class="st1" d="M129.8,52c-0.5,0.2-0.9,0.3-1.2,0.5c-0.3,0.2-0.8,0.5-1.2,0.7c-0.8,0.5-1.7,0.9-2.6,1.3
			c-1.8,0.8-3.6,1.4-5.5,1.9c-3.7,0.9-7.6,1.3-11.5,1c-7.7-0.5-15.3-3-21.9-6.8c-3.3-2-6.3-4.4-9.2-7c-2.9-2.6-5.6-5.3-8.6-7.9
			c-3-2.5-6.2-4.9-9.9-6.4c-3.7-1.6-7.7-2.2-11.7-2.2l0.3,1.4c1.8-0.6,3.7-1,5.5-1.2c1.9-0.2,3.8-0.4,5.7-0.3c1.9,0,3.8,0.4,5.6,0.8
			c0.9,0.3,1.8,0.5,2.7,0.8l1.3,0.6c0.4,0.2,0.9,0.4,1.3,0.6l1.2,0.7c0.4,0.2,0.8,0.5,1.2,0.8l1.1,0.9c0.4,0.3,0.8,0.6,1.1,0.9
			c0.7,0.7,1.4,1.3,2,2l2,2.1c2.7,2.8,5.4,5.6,8.4,8.1c3,2.5,6.2,4.8,9.8,6.5c1.8,0.9,3.7,1.5,5.5,2c1.9,0.5,3.8,0.9,5.7,1.2
			c1.9,0.3,3.9,0.6,5.8,0.7c2,0.1,3.9,0,5.9-0.2c1.9-0.2,3.9-0.6,5.8-1.2c0.9-0.3,1.9-0.6,2.8-0.9c0.5-0.2,0.9-0.4,1.4-0.6
			c0.2-0.1,0.4-0.2,0.7-0.3l0.3-0.2l0.2-0.1c0,0,0.1,0,0,0C129.9,52.2,129.8,52.1,129.8,52z M130.2,51.8c0-0.1-0.3-0.1-0.4-0.1
			l-0.1,0.1l-0.2,0.1l-0.3,0.2l-0.7,0.3c-0.4,0.2-0.9,0.4-1.3,0.5c-0.9,0.3-1.8,0.6-2.8,0.9c-1.9,0.5-3.8,0.9-5.7,1.1
			c-1.9,0.2-3.8,0.2-5.8,0.1c-1.9-0.2-3.8-0.4-5.7-0.7c-1.9-0.3-3.8-0.7-5.6-1.3c-1.8-0.6-3.7-1.2-5.4-2c-3.5-1.6-6.6-3.9-9.5-6.4
			c-2.9-2.5-5.6-5.3-8.3-8.1l-2-2.1c-0.7-0.7-1.4-1.4-2.1-2.1c-0.3-0.4-0.7-0.7-1.1-1l-1.2-0.9c-0.4-0.3-0.8-0.6-1.2-0.8l-1.3-0.8
			c-0.4-0.3-0.9-0.4-1.3-0.7l-1.4-0.6C65.9,27,65,26.8,64,26.5c-1.9-0.4-3.9-0.8-5.9-0.9c-2-0.1-4,0-5.9,0.2c-2,0.2-3.9,0.6-5.8,1.3
			h0c-0.4,0.1-0.6,0.5-0.5,0.9c0.1,0.3,0.4,0.5,0.7,0.5h0c3.8-0.1,7.6,0.5,11.1,1.9c3.5,1.4,6.7,3.7,9.6,6.1
			c5.9,5,11.2,10.9,18.1,14.8c6.8,3.9,14.5,6.3,22.4,6.7c3.9,0.2,7.9-0.2,11.7-1.1c1.9-0.5,3.8-1.2,5.6-2c0.9-0.4,1.8-0.8,2.6-1.3
			c0.4-0.3,0.8-0.4,1.3-0.8C129.5,52.5,129.9,52.1,130.2,51.8z"/>
		<path class="st1" d="M108,44.5c-1-2-0.4-4.6,1.3-6c0.8-0.7,1.9-1.1,3-1c1.1,0.1,2.1,0.6,2.8,1.4c0.7,0.8,1,1.9,0.7,2.9
			c-0.3,1-1.1,1.9-2.2,2.1c-1,0.2-2.2-0.3-2.6-1.2c-0.5-0.9-0.2-2.2,0.8-2.7c0.1,0,0.1-0.1,0.1-0.2c0-0.1-0.1-0.1-0.2-0.1h0
			c-1.2,0.5-1.7,2-1.1,3.2c0.6,1.1,1.9,1.8,3.1,1.5c1.2-0.3,2.2-1.2,2.6-2.4c0.4-1.2,0-2.6-0.8-3.5c-0.8-1-2-1.5-3.2-1.6
			c-1.2-0.1-2.4,0.4-3.3,1.2c-0.9,0.8-1.6,1.9-1.8,3c-0.2,1.2,0,2.4,0.5,3.5c0,0.1,0.2,0.1,0.2,0.1C108,44.7,108.1,44.6,108,44.5z"
			/>
		<path class="st1" d="M108.5,48.3l0.2,0.2l0.1,0.1c0,0,0,0,0-0.1l-0.1-0.1c-0.1-0.2-0.3-0.3-0.4-0.5c-0.2-0.3-0.5-0.7-0.7-1.1
			c-0.4-0.7-0.8-1.5-1.1-2.3c-0.6-1.6-1-3.2-1.1-4.9c-0.1-1.7,0.1-3.3,0.6-4.9c0.4-1.6,1.2-3.1,2-4.5c1.6-2.9,3.6-5.6,5.5-8.5
			c0.4-0.7,0.9-1.5,1.2-2.3c0.3-0.8,0.6-1.8,0.5-2.8c-0.1-0.5-0.3-1-0.5-1.5c-0.3-0.4-0.6-0.8-1-1.1c-0.7-0.6-1.6-1.1-2.7-1.2
			c-1-0.1-2.1,0.2-2.9,0.7c-0.8,0.5-1.5,1.2-2,1.9c-1.1,1.4-1.9,3-2.6,4.5c-0.7,1.6-1.2,3.2-1.5,4.9c-0.3,1.7-0.5,3.4-0.6,5.1
			c0,1.7,0.1,3.4,0.3,5.1c0.3,1.7,0.7,3.4,1.3,4.9C104.1,43,106.1,45.9,108.5,48.3L108.5,48.3z M108.5,48.2
			c-2.4-2.4-4.1-5.4-5.2-8.5c-0.6-1.6-0.9-3.2-1.1-4.9c-0.2-1.7-0.2-3.3-0.1-5c0.2-3.3,0.9-6.6,2.4-9.6c0.7-1.5,1.5-2.9,2.6-4.1
			c1-1.2,2.4-2.1,3.7-1.9c0.6,0.1,1.3,0.4,1.8,0.9c0.6,0.4,0.9,1,1,1.6c0.1,0.6,0,1.4-0.3,2.1c-0.3,0.7-0.6,1.5-1,2.2
			c-1.6,2.9-3.6,5.7-5.1,8.8c-0.8,1.5-1.5,3.1-1.9,4.8c-0.4,1.7-0.5,3.4-0.4,5.1c0.2,1.7,0.6,3.4,1.3,4.9c0.3,0.8,0.8,1.5,1.2,2.2
			c0.2,0.4,0.5,0.7,0.7,1c0.1,0.2,0.3,0.3,0.4,0.5l0.1,0.1c0,0,0,0.1,0.1,0l-0.1-0.1L108.5,48.2L108.5,48.2z"/>
		<path class="st1" d="M133.3,49.2c-3.1,4.1-6.9,7.7-11.4,10.1c-4.5,2.5-9.5,3.9-14.6,4.3c-2.5,0.2-5.1,0.1-7.6-0.2
			c-2.5-0.3-5-0.8-7.5-1.5c-2.5-0.7-4.9-1.6-7.2-2.5c-2.3-1-4.7-2.1-6.9-3.4c-4.5-2.5-8.7-5.4-12.7-8.6c-4.1-3.1-8.4-6.1-13.1-8.3
			c-4.7-2.2-9.8-3.8-15-3.6c-1.3,0.1-2.6,0.3-3.9,0.7c-1.2,0.4-2.5,0.9-3.6,1.5c-2.2,1.3-4.2,3.2-5.4,5.4c0.6-1.1,1.5-2.1,2.4-3
			c0.9-0.9,2-1.6,3.1-2.2c1.1-0.6,2.3-1.1,3.6-1.4c1.2-0.3,2.5-0.5,3.8-0.5c5.1-0.2,10.1,1.5,14.7,3.8c4.6,2.3,8.8,5.2,12.9,8.3
			c4,3.2,8.3,6.2,12.8,8.7c2.3,1.3,4.6,2.4,7,3.4c2.4,1,4.8,1.9,7.4,2.5c5,1.4,10.3,2,15.5,1.5c5.2-0.5,10.3-2,14.8-4.6
			C126.6,57.1,130.4,53.5,133.3,49.2z"/>
		<path class="st1" d="M79.2,11.4c0,0.2,0.2,0.4,0.4,0.4c0.5,0.1,11.6,1.6,13.4,14c2.1,13.8,3.4,23,21.9,27.4
			c0.2,0.1,0.5-0.1,0.5-0.3c0.1-0.2-0.1-0.5-0.3-0.5c-17.9-4.2-19.3-13.2-21.3-26.6C92,12.7,79.9,11,79.8,11
			C79.5,10.9,79.3,11.1,79.2,11.4C79.2,11.4,79.2,11.4,79.2,11.4z"/>
	</g>
</g>
<g>
	<defs>
		<rect id="SVGID_3_" x="317.9" y="36.6" width="56.7" height="30.6"/>
	</defs>
	<clipPath id="SVGID_4_">
		<use xlink:href="#SVGID_3_"  style="overflow:visible;"/>
	</clipPath>
	<g class="st2">
		<path class="st1" d="M324.1,49.5c-0.9,1.3-0.9,3.2-0.1,4.5c0.9,1.4,2.5,2.2,4.1,2.2c1.6,0,3.2-0.7,4.3-2c1-1.3,1.5-2.9,1.3-4.5
			c-0.1-1.6-0.9-3.2-2-4.3c-1.2-1.1-2.7-1.7-4.3-2c-0.8-0.1-1.6-0.1-2.4,0c-0.8,0.1-1.5,0.4-2.3,0.7c-0.7,0.3-1.4,0.8-1.9,1.3
			c-0.6,0.5-1.1,1.1-1.5,1.8c0,0.1,0,0.1,0,0.2c0.1,0,0.1,0,0.2,0l0,0c0.4-0.6,0.9-1.2,1.5-1.7c0.6-0.5,1.2-0.9,1.9-1.2
			c0.7-0.3,1.4-0.5,2.2-0.6c0.7-0.1,1.5-0.1,2.2,0c1.5,0.2,2.9,0.9,3.9,1.9c1.1,1,1.7,2.4,1.8,3.9c0.1,1.5-0.3,3-1.2,4.1
			c-0.9,1.1-2.3,1.9-3.8,1.8c-1.4,0-2.9-0.6-3.8-1.8c-0.4-0.6-0.6-1.3-0.7-2.1c0-0.7,0.2-1.5,0.5-2.1c0,0,0-0.1,0-0.1
			C324.2,49.4,324.2,49.4,324.1,49.5z"/>
		<path class="st1" d="M328.5,43.9c0,0,0,0.1,0.1,0.2c0.1,0,0.1,0,0.1,0l0.1,0l0.2,0.1c0.1,0.1,0.3,0.1,0.4,0.2
			c0.3,0.1,0.6,0.3,0.8,0.4c0.5,0.3,1.1,0.6,1.6,1c1,0.7,1.9,1.5,2.6,2.5c0.7,1,1.3,2.1,1.5,3.2c0.3,1.2,0.4,2.4,0.5,3.6
			c0.1,1.2,0.1,2.5,0.6,3.7c0.2,0.6,0.5,1.2,1,1.7c0.4,0.5,0.9,0.9,1.5,1.3c1.1,0.7,2.3,1.1,3.5,1.5c1.2,0.3,2.4,0.6,3.6,0.8h0
			l0-0.3c-0.6-0.1-1.1-0.5-1.4-1c-0.4-0.5-0.7-1-0.9-1.6c-0.4-1.2-0.6-2.4-0.6-3.6c0-0.6,0-1.2,0-1.9c0-0.7,0-1.3-0.1-2
			c-0.1-1.3-0.6-2.6-1.2-3.7c-0.6-1.2-1.6-2.2-2.6-3c-0.3-0.2-0.5-0.4-0.8-0.6l-0.8-0.5c-0.6-0.3-1.2-0.6-1.8-0.8
			c-1.2-0.5-2.5-0.8-3.7-1l-1-0.1l-1-0.1l-0.5-0.1c-0.2,0-0.4,0-0.6,0C329.1,43.8,328.8,43.9,328.5,43.9z M328.8,43.9
			c0.3,0.1,0.6,0.2,0.9,0.2c0.1,0,0.3,0,0.4,0.1l0.5,0.1l0.9,0.2l0.9,0.2c1.2,0.3,2.5,0.6,3.6,1.1c1.2,0.5,2.3,1.1,3.2,1.9l0.4,0.3
			l0.3,0.3l0.3,0.3c0.1,0.1,0.2,0.2,0.3,0.3l0.6,0.7c0.2,0.3,0.3,0.5,0.5,0.8c0.2,0.3,0.3,0.5,0.4,0.8c0.1,0.3,0.3,0.6,0.3,0.9
			l0.3,0.9c0.1,0.3,0.1,0.6,0.2,0.9c0.1,0.6,0.1,1.2,0.2,1.8c0,0.6,0,1.3,0.1,1.9c0.1,1.3,0.3,2.6,0.8,3.8c0.3,0.6,0.6,1.2,1.1,1.7
			c0.5,0.5,1,0.9,1.7,1c0.1,0,0.1,0,0.2-0.1c0-0.1,0-0.1-0.1-0.2h0c-1.2-0.3-2.4-0.6-3.6-0.9c-1.2-0.4-2.3-0.8-3.3-1.5
			c-0.5-0.3-1-0.7-1.3-1.2c-0.4-0.4-0.7-1-0.9-1.5c-0.4-1.1-0.4-2.4-0.5-3.6c-0.1-1.2-0.2-2.5-0.5-3.7c-0.3-1.2-0.9-2.4-1.7-3.4
			c-0.8-1-1.7-1.9-2.8-2.6c-0.5-0.3-1.1-0.7-1.6-0.9c-0.3-0.1-0.6-0.3-0.9-0.4c-0.1-0.1-0.3-0.1-0.4-0.2l-0.2-0.1l-0.1,0
			c0,0-0.1,0,0,0C328.8,43.8,328.8,43.9,328.8,43.9z"/>
		<path class="st1" d="M335.9,45.7c0.9,0.3,1.8,0.8,2.6,1.3c0.8,0.5,1.6,1.1,2.3,1.8c1.4,1.4,2.6,2.9,3.5,4.7
			c0.5,0.9,0.9,1.8,1.2,2.7c0.3,0.9,0.6,1.9,0.9,2.8c0.3,1,0.6,1.9,1,2.9c0.4,0.9,0.9,1.9,1.7,2.6c0.7,0.8,1.6,1.4,2.5,1.9
			c0.9,0.5,2,0.8,3,0.8c1.1,0,2.1-0.4,3-0.9c0.9-0.6,1.6-1.4,2-2.4c0.4-1,0.4-2.2-0.1-3.1c-0.2-0.5-0.6-0.9-1-1.2
			c-0.4-0.3-0.8-0.6-1.4-0.8c-1-0.3-2.2-0.1-3,0.7c-0.4,0.4-0.6,0.9-0.6,1.5c0.1,0.6,0.4,1,0.8,1.4c0.1,0.1,0.2,0,0.2,0
			c0.1-0.1,0-0.2,0-0.2l0,0c-0.4-0.3-0.6-0.7-0.7-1.1c0-0.4,0.2-0.9,0.5-1.2c0.6-0.7,1.7-0.9,2.6-0.6c0.4,0.1,0.8,0.4,1.2,0.7
			c0.4,0.3,0.7,0.7,0.9,1.1c0.4,0.8,0.4,1.9,0.1,2.7c-0.4,0.9-1,1.6-1.8,2.2c-0.8,0.5-1.7,0.8-2.7,0.8c-0.9,0-1.9-0.3-2.7-0.8
			c-0.9-0.5-1.6-1.1-2.3-1.8c-1.3-1.4-1.9-3.3-2.4-5.3c-0.3-1-0.5-1.9-0.9-2.9c-0.3-1-0.7-1.9-1.2-2.8c-1-1.8-2.3-3.4-3.8-4.8
			c-1.5-1.4-3.3-2.5-5.3-3.1c-0.2,0-0.3,0-0.4,0.2C335.6,45.4,335.7,45.6,335.9,45.7L335.9,45.7z"/>
		<path class="st1" d="M318.3,51.5c0.4-2.2,1.4-4.4,2.8-6.1c1.5-1.7,3.4-3,5.5-3.7c1.1-0.4,2.2-0.6,3.3-0.7c0.3,0,0.6-0.1,0.8-0.1
			c0.3,0,0.6,0,0.8-0.1c0.6,0,1.1,0,1.7,0c2.3,0.1,4.5,0.4,6.7,1.1c2.2,0.6,4.2,1.6,6.2,2.8c2,1.2,3.8,2.5,5.6,4
			c1.8,1.4,3.7,2.9,5.7,4c1,0.6,2.1,1.1,3.3,1.4c0.3,0.1,0.6,0.1,0.9,0.2c0.3,0.1,0.6,0.1,0.9,0.1c0.3,0,0.6,0,0.9,0.1l0.9,0
			c2.4,0,4.8-0.9,6.6-2.5c1.8-1.5,3.1-3.8,3.4-6.2c0.4-2.4-0.4-4.9-2.1-6.7c-1.6-1.8-4.1-2.8-6.5-2.5c-0.3,0-0.6,0.1-0.9,0.1
			c-0.3,0.1-0.6,0.2-0.9,0.3c-0.6,0.2-1.1,0.5-1.6,0.9c-1,0.7-1.7,1.7-2.1,2.9c-0.2,0.6-0.3,1.2-0.4,1.7c0,0.6,0,1.2,0.2,1.8
			c0.3,1.2,1.1,2.2,2.1,2.9c1,0.7,2.2,1,3.4,0.8c1.2-0.2,2.3-0.9,2.9-1.9c0.3-0.5,0.5-1.1,0.6-1.7c0.1-0.6,0-1.2-0.3-1.8
			c-0.5-1.1-1.6-1.9-2.8-2c-0.1,0-0.1,0-0.1,0.1c0,0.1,0,0.1,0.1,0.1c1.1,0.1,2.2,0.8,2.6,1.8c0.2,0.5,0.3,1.1,0.2,1.6
			c-0.1,0.6-0.3,1.1-0.6,1.6c-0.6,0.9-1.6,1.6-2.7,1.7c-1.1,0.1-2.3-0.2-3.2-0.8c-0.9-0.6-1.6-1.6-1.9-2.7c-0.1-0.5-0.2-1.1-0.2-1.6
			c0.1-0.6,0.2-1.1,0.4-1.6c0.4-1,1.1-2,2-2.6c0.4-0.3,0.9-0.6,1.4-0.8c0.3-0.1,0.5-0.2,0.8-0.3c0.3,0,0.5-0.1,0.8-0.1
			c1.1-0.1,2.2,0.1,3.3,0.5c1,0.4,2,1.1,2.7,1.9c1.5,1.6,2.2,4,1.8,6.2c-0.3,2.2-1.5,4.2-3.2,5.6c-1.7,1.4-3.9,2.2-6.1,2.2l-0.8,0
			c-0.3,0-0.6,0-0.8-0.1c-0.3,0-0.5-0.1-0.8-0.1c-0.3-0.1-0.5-0.1-0.8-0.2c-1.1-0.3-2.1-0.8-3.1-1.3c-2-1.1-3.8-2.6-5.6-4
			c-1.8-1.4-3.7-2.8-5.7-4c-2-1.2-4.2-2.2-6.4-2.9c-2.3-0.7-4.6-1-7-1c-2.4-0.1-4.8,0.2-7,1c-2.2,0.8-4.3,2.2-5.7,4.1
			c-1.5,1.9-2.4,4.1-2.7,6.5c0,0.1,0.1,0.2,0.2,0.2C318.2,51.7,318.3,51.6,318.3,51.5L318.3,51.5z"/>
		<path class="st1" d="M322.3,44.3c0.2-0.1,0.4-0.2,0.6-0.2c0.1-0.1,0.4-0.2,0.6-0.3c0.4-0.2,0.8-0.4,1.3-0.6
			c0.9-0.4,1.7-0.7,2.6-0.9c1.8-0.5,3.7-0.6,5.6-0.5c3.7,0.2,7.4,1.4,10.6,3.3c1.6,1,3.1,2.1,4.5,3.4c1.4,1.3,2.7,2.6,4.2,3.8
			c1.4,1.2,3,2.4,4.8,3.1c1.8,0.8,3.7,1.1,5.7,1l-0.1-0.7c-0.8,0.3-1.8,0.5-2.7,0.6c-0.9,0.1-1.8,0.2-2.8,0.1
			c-0.9,0-1.8-0.2-2.7-0.4c-0.4-0.1-0.9-0.3-1.3-0.4l-0.6-0.3c-0.2-0.1-0.4-0.2-0.6-0.3l-0.6-0.3c-0.2-0.1-0.4-0.2-0.6-0.4l-0.6-0.4
			c-0.2-0.1-0.4-0.3-0.5-0.4c-0.3-0.3-0.7-0.6-1-1l-1-1c-1.3-1.4-2.6-2.7-4.1-3.9c-1.4-1.2-3-2.3-4.8-3.1c-0.9-0.4-1.8-0.7-2.7-1
			c-0.9-0.2-1.8-0.4-2.8-0.6c-0.9-0.2-1.9-0.3-2.8-0.3c-0.9,0-1.9,0-2.8,0.1c-0.9,0.1-1.9,0.3-2.8,0.6c-0.5,0.1-0.9,0.3-1.3,0.5
			c-0.2,0.1-0.4,0.2-0.7,0.3c-0.1,0-0.2,0.1-0.3,0.1l-0.2,0.1L322.3,44.3c-0.1-0.1-0.1-0.1-0.1-0.1
			C322.2,44.2,322.3,44.2,322.3,44.3z M322.1,44.4c0,0,0.1,0.1,0.2,0l0.1,0l0.1,0l0.2-0.1l0.3-0.1c0.2-0.1,0.4-0.2,0.7-0.3
			c0.4-0.2,0.9-0.3,1.3-0.4c0.9-0.2,1.8-0.4,2.7-0.5c0.9-0.1,1.9-0.1,2.8-0.1c0.9,0.1,1.9,0.2,2.8,0.4c0.9,0.1,1.8,0.4,2.7,0.6
			c0.9,0.3,1.8,0.6,2.6,1c1.7,0.8,3.2,1.9,4.6,3.1c1.4,1.2,2.7,2.6,4,3.9l0.9,1c0.3,0.3,0.7,0.7,1,1c0.2,0.2,0.4,0.3,0.6,0.5
			l0.6,0.4c0.2,0.2,0.4,0.3,0.6,0.4l0.6,0.4c0.2,0.1,0.4,0.2,0.7,0.3l0.7,0.3c0.5,0.2,0.9,0.3,1.4,0.4c0.9,0.2,1.9,0.4,2.9,0.4
			c1,0.1,1.9,0,2.9-0.1c1-0.1,1.9-0.3,2.8-0.6h0c0.2-0.1,0.3-0.3,0.2-0.4c-0.1-0.1-0.2-0.2-0.3-0.2h0c-1.8,0-3.7-0.2-5.4-0.9
			c-1.7-0.7-3.2-1.8-4.7-3c-2.9-2.4-5.4-5.3-8.8-7.2c-3.3-1.9-7-3-10.8-3.3c-1.9-0.1-3.8,0.1-5.7,0.6c-0.9,0.2-1.8,0.6-2.7,0.9
			c-0.4,0.2-0.9,0.4-1.3,0.7c-0.2,0.1-0.4,0.2-0.6,0.4C322.4,44,322.2,44.2,322.1,44.4z"/>
		<path class="st1" d="M332.8,47.9c0.5,1,0.2,2.2-0.6,2.9c-0.4,0.3-0.9,0.5-1.4,0.5c-0.5,0-1-0.3-1.3-0.7c-0.3-0.4-0.5-0.9-0.3-1.4
			c0.1-0.5,0.6-0.9,1-1c0.5-0.1,1,0.1,1.3,0.6c0.3,0.4,0.1,1.1-0.4,1.3c0,0-0.1,0.1,0,0.1c0,0,0.1,0.1,0.1,0h0
			c0.6-0.2,0.8-1,0.5-1.5c-0.3-0.5-0.9-0.9-1.5-0.7c-0.6,0.1-1.1,0.6-1.3,1.2c-0.2,0.6,0,1.2,0.4,1.7c0.4,0.5,0.9,0.7,1.5,0.8
			c0.6,0,1.2-0.2,1.6-0.6c0.4-0.4,0.8-0.9,0.9-1.5c0.1-0.6,0-1.2-0.2-1.7c0,0-0.1-0.1-0.1,0C332.8,47.8,332.8,47.8,332.8,47.9z"/>
		<path class="st1" d="M332.6,46.1l-0.1-0.1l0,0c0,0,0,0,0,0L332.6,46.1c0,0,0.1,0.1,0.1,0.2c0.1,0.2,0.2,0.3,0.3,0.5
			c0.2,0.4,0.4,0.7,0.5,1.1c0.3,0.8,0.5,1.6,0.5,2.4c0,0.8,0,1.6-0.3,2.4c-0.2,0.8-0.6,1.5-1,2.2c-0.8,1.4-1.8,2.7-2.6,4.1
			c-0.2,0.4-0.4,0.7-0.6,1.1c-0.2,0.4-0.3,0.9-0.2,1.4c0,0.3,0.1,0.5,0.3,0.7c0.1,0.2,0.3,0.4,0.5,0.6c0.3,0.3,0.8,0.5,1.3,0.6
			c0.5,0.1,1-0.1,1.4-0.3c0.4-0.2,0.7-0.6,1-0.9c0.5-0.7,0.9-1.4,1.3-2.2c0.3-0.8,0.6-1.6,0.7-2.4c0.2-0.8,0.2-1.6,0.3-2.5
			c0-0.8,0-1.7-0.2-2.5c-0.1-0.8-0.3-1.6-0.6-2.4C334.7,48.6,333.8,47.2,332.6,46.1L332.6,46.1z M332.6,46.1c1.1,1.2,2,2.6,2.5,4.1
			c0.3,0.8,0.4,1.6,0.5,2.4c0.1,0.8,0.1,1.6,0.1,2.4c-0.1,1.6-0.4,3.2-1.2,4.6c-0.3,0.7-0.7,1.4-1.3,2c-0.5,0.6-1.2,1-1.8,0.9
			c-0.3-0.1-0.6-0.2-0.9-0.4c-0.3-0.2-0.5-0.5-0.5-0.8c-0.1-0.3,0-0.7,0.1-1c0.1-0.4,0.3-0.7,0.5-1.1c0.8-1.4,1.7-2.8,2.5-4.3
			c0.4-0.7,0.7-1.5,0.9-2.3c0.2-0.8,0.3-1.7,0.2-2.5c-0.1-0.8-0.3-1.6-0.6-2.4c-0.2-0.4-0.4-0.7-0.6-1.1c-0.1-0.2-0.2-0.3-0.4-0.5
			C332.6,46.2,332.6,46.1,332.6,46.1l-0.1-0.1c0,0,0,0,0,0l0,0L332.6,46.1L332.6,46.1z"/>
		<path class="st1" d="M320.6,45.6c1.5-2,3.4-3.7,5.5-4.9c2.2-1.2,4.6-1.9,7.1-2.1c1.2-0.1,2.5-0.1,3.7,0.1c1.2,0.1,2.4,0.4,3.6,0.7
			c1.2,0.3,2.4,0.8,3.5,1.2c1.1,0.5,2.3,1,3.3,1.7c2.2,1.2,4.2,2.6,6.2,4.2c2,1.5,4.1,2.9,6.3,4c2.3,1.1,4.7,1.9,7.3,1.7
			c0.6-0.1,1.3-0.1,1.9-0.3c0.6-0.2,1.2-0.4,1.7-0.7c1.1-0.6,2-1.5,2.6-2.6c-0.3,0.5-0.7,1-1.2,1.4c-0.5,0.4-1,0.8-1.5,1.1
			c-0.5,0.3-1.1,0.5-1.7,0.7c-0.6,0.2-1.2,0.2-1.8,0.3c-2.5,0.1-4.9-0.7-7.1-1.8c-2.2-1.1-4.3-2.5-6.2-4c-2-1.5-4-3-6.2-4.2
			c-1.1-0.6-2.2-1.2-3.4-1.7c-1.2-0.5-2.3-0.9-3.6-1.2c-2.4-0.7-5-1-7.5-0.7c-2.5,0.2-5,1-7.2,2.2C323.8,41.8,322,43.5,320.6,45.6z"
			/>
		<path class="st1" d="M346.8,63.9c0-0.1-0.1-0.2-0.2-0.2c-0.2,0-5.6-0.8-6.5-6.8c-1-6.7-1.7-11.1-10.6-13.3c-0.1,0-0.2,0-0.3,0.2
			c0,0.1,0,0.2,0.2,0.3c8.7,2.1,9.3,6.4,10.3,12.9c0.9,6.3,6.8,7.1,6.9,7.1C346.6,64.2,346.7,64.1,346.8,63.9
			C346.8,63.9,346.8,63.9,346.8,63.9z"/>
	</g>
</g>
<g>
	<g>
		<path class="st3" d="M196.5,45.8c0.2,0,0.3,0.1,0.4,0.2c0.1,0.1,0.2,0.3,0.2,0.5c0,0.2-0.2,0.6-0.5,1.2s-0.7,1.1-1,1.8
			c-0.4,0.7-0.7,1.4-1,2.1c-0.3,0.8-0.5,1.5-0.5,2.2c0,0.7,0.1,1.2,0.3,1.4c0.2,0.2,0.6,0.4,1.1,0.4c0.3,0,0.7-0.1,1-0.2
			c0.3-0.2,0.7-0.4,1.1-0.8c0.4-0.4,0.7-0.8,1.1-1.4c0.4-0.6,0.8-1.3,1.2-2.1l0.3,0.3c-0.3,0.8-0.6,1.6-1,2.2
			c-0.4,0.7-0.9,1.2-1.4,1.6c-0.5,0.4-1,0.8-1.6,1c-0.6,0.2-1.1,0.3-1.7,0.3c-0.7,0-1.3-0.2-1.7-0.7c-0.4-0.5-0.5-1.1-0.5-1.7
			c0-0.4,0.1-0.8,0.2-1.4c0.1-0.5,0.3-1.1,0.5-1.7c0.2-0.6,0.4-1.2,0.7-1.8c0.3-0.6,0.5-1.2,0.8-1.6c0.3-0.5,0.6-0.9,1-1.2
			C195.8,45.9,196.2,45.8,196.5,45.8z M198,43c-0.3,0-0.6-0.1-0.8-0.2c-0.2-0.2-0.3-0.4-0.3-0.7c0-0.2,0.1-0.4,0.2-0.6
			c0.1-0.2,0.3-0.4,0.5-0.5c0.2-0.1,0.4-0.3,0.7-0.3c0.2-0.1,0.5-0.1,0.7-0.1c0.3,0,0.5,0.1,0.7,0.2c0.2,0.1,0.3,0.4,0.3,0.7
			c0,0.2-0.1,0.4-0.2,0.6c-0.1,0.2-0.2,0.4-0.4,0.5c-0.2,0.1-0.4,0.3-0.6,0.4C198.4,43,198.2,43,198,43z"/>
		<path class="st3" d="M208.1,46.9c-2.1,0.2-3.8,0.4-5,0.4h-0.4c-0.4,1.1-0.8,2.1-1.1,3.2c-0.3,1.1-0.5,2.1-0.5,3.2
			c0,0.9,0.1,1.5,0.4,1.8c0.2,0.4,0.7,0.5,1.2,0.5c1,0,2-0.4,2.9-1.3c0.9-0.9,1.8-2.1,2.5-3.7l0.4,0.3c-0.3,0.8-0.8,1.6-1.2,2.3
			c-0.5,0.7-1,1.3-1.6,1.8c-0.6,0.5-1.2,0.9-1.8,1.2c-0.6,0.3-1.3,0.4-2,0.4c-1.7,0-2.5-1-2.5-2.9c0-0.9,0.2-1.9,0.5-3.2
			c0.3-1.2,0.7-2.5,1.2-3.9c-0.2,0-0.4-0.1-0.5-0.1s-0.3-0.1-0.5-0.1v-0.5c0.2,0,0.3,0,0.5,0.1c0.2,0,0.4,0,0.7,0.1
			c0.4-1.1,0.8-2.1,1.3-3.1c0.5-1,0.9-1.9,1.4-2.6c0.4-0.8,0.9-1.4,1.3-1.8c0.4-0.5,0.8-0.7,1-0.7c0.2,0,0.3,0.1,0.4,0.2
			c0.1,0.1,0.2,0.3,0.2,0.5c0,0.3-0.1,0.6-0.4,1.1c-0.2,0.5-0.5,1.1-0.9,1.7c-0.4,0.7-0.8,1.4-1.2,2.2c-0.4,0.8-0.9,1.7-1.3,2.6h1.1
			c0.6,0,1.3,0,2,0c0.7,0,1.4-0.1,2.1-0.1V46.9z"/>
		<path class="st3" d="M222,54.6c0-0.3,0-0.6,0.1-1c0.1-0.4,0.2-0.7,0.3-1.1c0.1-0.4,0.2-0.8,0.3-1.2c0.1-0.4,0.1-0.8,0.1-1.1
			c0-0.5-0.1-0.9-0.3-1.1c-0.2-0.2-0.5-0.3-0.8-0.3c-0.5,0-0.9,0.2-1.3,0.6c-0.4,0.4-0.7,0.9-1,1.5c-0.3,0.6-0.6,1.2-0.9,1.9
			c-0.3,0.7-0.5,1.4-0.8,1.9c-0.3,0.6-0.5,1.1-0.8,1.5c-0.2,0.4-0.5,0.6-0.8,0.6c-0.2,0-0.3-0.1-0.5-0.3c-0.2-0.2-0.3-0.4-0.4-0.7
			c-0.1-0.3-0.2-0.6-0.2-1c-0.1-0.4-0.1-0.7-0.1-1.1c0-0.9,0.2-2.1,0.5-3.4c0.3-1.3,0.7-2.7,1.2-4.1c0.5-1.4,1.1-2.8,1.7-4.2
			c0.6-1.4,1.3-2.6,1.9-3.7c0.6-1.1,1.2-2,1.8-2.7c0.6-0.7,1.1-1,1.5-1c0.2,0,0.3,0.1,0.4,0.2c0.1,0.1,0.2,0.3,0.3,0.5
			c0.1,0.2,0.1,0.4,0.2,0.6c0,0.2,0.1,0.4,0.1,0.6c0,0.4-0.1,1-0.3,1.6c-0.2,0.6-0.4,1.3-0.7,2c-0.3,0.7-0.6,1.4-1.1,2.2
			c-0.4,0.7-0.9,1.5-1.3,2.1c-0.5,0.7-1,1.3-1.6,1.8c-0.6,0.6-1.1,1-1.7,1.4c-0.2,0.4-0.3,0.9-0.5,1.4c-0.1,0.5-0.2,1-0.3,1.5
			c-0.1,0.5-0.2,1-0.2,1.5c0,0.5-0.1,0.9-0.1,1.3c0,0.2,0,0.4,0,0.6c0,0.2,0,0.3,0,0.4c0.3-1,0.7-2,1.1-2.9c0.4-0.9,0.8-1.7,1.3-2.4
			c0.5-0.7,1-1.3,1.6-1.7c0.6-0.4,1.2-0.6,1.8-0.6c0.4,0,0.7,0.1,1,0.2c0.3,0.2,0.5,0.4,0.7,0.6c0.2,0.2,0.3,0.5,0.4,0.8
			c0.1,0.3,0.1,0.6,0.1,1c0,0.4-0.1,0.9-0.2,1.3c-0.1,0.4-0.3,0.9-0.4,1.3c-0.2,0.4-0.3,0.8-0.4,1.2c-0.1,0.4-0.2,0.8-0.2,1.1
			c0,0.4,0.1,0.7,0.2,0.8c0.2,0.2,0.4,0.3,0.6,0.3c0.3,0,0.7-0.1,1.1-0.4c0.4-0.3,0.8-0.6,1.2-1c0.4-0.4,0.8-0.9,1.2-1.5
			c0.4-0.6,0.7-1.2,1-1.8l0.4,0.4c-0.3,0.7-0.7,1.4-1.1,2c-0.4,0.6-0.8,1.2-1.3,1.6c-0.5,0.5-1,0.8-1.5,1.1
			c-0.5,0.3-1.1,0.4-1.6,0.4c-0.7,0-1.2-0.2-1.5-0.5C222.2,55.5,222,55.1,222,54.6z M223.5,37.1c-0.2,0-0.4,0.3-0.8,0.8
			c-0.4,0.5-0.9,1.3-1.4,2.1c-0.5,0.9-1,1.9-1.6,3c-0.5,1.1-1,2.3-1.3,3.5c0.6-0.5,1.3-1.3,1.9-2.2c0.6-0.9,1.2-1.8,1.7-2.7
			c0.5-0.9,0.9-1.8,1.2-2.6c0.3-0.8,0.4-1.4,0.4-1.8C223.6,37.2,223.6,37.1,223.5,37.1z"/>
		<path class="st3" d="M236.5,49.5c0.1,0,0.2,0,0.3,0.1c0.1,0,0.3,0.1,0.4,0.1c0.1,0.1,0.2,0.1,0.3,0.2c0.1,0.1,0.1,0.2,0.1,0.3
			c0,0.2-0.1,0.4-0.3,0.7c-0.2,0.3-0.4,0.7-0.6,1c-0.2,0.4-0.4,0.8-0.6,1.2c-0.2,0.4-0.3,0.8-0.3,1.1c0,0.3,0.1,0.6,0.2,0.9
			c0.2,0.3,0.4,0.4,0.7,0.4c0.5,0,1.2-0.4,2-1.1c0.8-0.8,1.7-1.9,2.5-3.5l0.3,0.3c-0.3,0.8-0.7,1.5-1.1,2.2
			c-0.4,0.7-0.9,1.2-1.4,1.7c-0.5,0.5-1,0.8-1.6,1.1c-0.5,0.3-1.1,0.4-1.6,0.4c-0.7,0-1.2-0.2-1.6-0.6c-0.3-0.4-0.5-0.9-0.5-1.4
			c0-0.2,0-0.5,0.1-0.8c-0.8,1.1-1.6,2-2.2,2.5c-0.7,0.6-1.3,0.9-2.1,0.9c-0.6,0-1.1-0.2-1.5-0.6c-0.4-0.4-0.6-1-0.6-1.8
			c0-0.6,0.1-1.2,0.3-1.9c0.2-0.7,0.5-1.3,0.9-2c0.4-0.7,0.8-1.3,1.3-1.9c0.5-0.6,1.1-1.2,1.6-1.6c0.6-0.5,1.2-0.8,1.8-1.1
			c0.6-0.3,1.3-0.4,1.9-0.4c0.7,0,1.4,0.2,1.9,0.6c0.5,0.4,0.7,0.9,0.7,1.6c0,0.5-0.1,0.8-0.4,1c-0.3,0.2-0.6,0.3-1,0.3
			c0.1-0.4,0.1-0.7,0.1-1c0-0.4-0.1-0.8-0.3-1.2c-0.2-0.3-0.6-0.5-1.1-0.5c-0.5,0-0.9,0.1-1.4,0.4c-0.5,0.3-0.9,0.6-1.3,1.1
			c-0.4,0.5-0.8,1-1.2,1.6c-0.4,0.6-0.7,1.2-1,1.8c-0.3,0.6-0.5,1.2-0.7,1.8c-0.2,0.6-0.2,1.1-0.2,1.6c0,0.8,0.3,1.1,0.8,1.1
			c0.4,0,0.9-0.2,1.5-0.7c0.6-0.5,1.1-1,1.7-1.7c0.6-0.7,1.1-1.4,1.6-2.1C235.8,50.6,236.2,50,236.5,49.5z"/>
		<path class="st3" d="M244.5,56.5c-0.5,0-0.9-0.1-1.2-0.2c-0.3-0.1-0.5-0.2-0.5-0.4c0-0.1,0.1-0.1,0.2-0.1c0.1,0,0.3,0,0.5,0
			c0.8,0,1.5-0.2,2.2-0.6c0.7-0.4,1.3-0.9,1.9-1.5c0.5-0.6,1-1.3,1.3-2.1c0.3-0.8,0.5-1.5,0.5-2.3c0-0.6-0.1-1.2-0.4-1.6
			c-0.3-0.4-0.7-0.7-1.2-0.7c-0.5,0-1,0.2-1.5,0.5c-0.5,0.3-0.9,0.7-1.4,1.2c-0.4,0.5-0.8,1-1.1,1.5s-0.6,1-0.8,1.5
			c-0.3,1.5-0.7,2.9-1,4.3c-0.3,1.4-0.7,2.6-1,3.7c-0.3,1.1-0.6,2-0.9,2.7c-0.3,0.7-0.5,1.1-0.6,1.3c-0.1,0.1-0.2,0.1-0.3,0.1
			c-0.1,0-0.2-0.1-0.3-0.2c-0.1-0.1-0.2-0.2-0.3-0.4c-0.1-0.1-0.1-0.2-0.2-0.4c0-0.1-0.1-0.2-0.1-0.2c0.2-0.8,0.4-1.5,0.7-2.2
			c0.2-0.6,0.4-1.3,0.6-1.9c0.2-0.6,0.4-1.3,0.6-2.1c0.2-0.8,0.4-1.6,0.6-2.7c0.2-1,0.4-2.2,0.6-3.6c0.2-1.4,0.4-3.1,0.7-5
			c0-0.2,0.1-0.3,0.1-0.4c0.1-0.1,0.2-0.1,0.4-0.1c0.5,0,0.8,0.1,1.1,0.4c0.2,0.3,0.3,0.6,0.3,0.9c0,0.3-0.1,0.8-0.2,1.5
			c-0.1,0.7-0.3,1.5-0.5,2.5c0.2-0.5,0.5-1,0.9-1.5c0.3-0.5,0.7-1,1.1-1.4c0.4-0.4,0.9-0.8,1.4-1c0.5-0.3,1-0.4,1.6-0.4
			c0.9,0,1.5,0.3,2.1,0.9c0.5,0.6,0.8,1.4,0.8,2.4c0,0.8-0.2,1.6-0.5,2.4c-0.3,0.9-0.8,1.7-1.4,2.4c-0.6,0.7-1.3,1.3-2.1,1.8
			C246.4,56.2,245.5,56.5,244.5,56.5z"/>
		<path class="st3" d="M255.7,56.5c-0.5,0-0.9-0.1-1.2-0.2c-0.3-0.1-0.5-0.2-0.5-0.4c0-0.1,0.1-0.1,0.2-0.1c0.1,0,0.3,0,0.5,0
			c0.8,0,1.5-0.2,2.2-0.6c0.7-0.4,1.3-0.9,1.9-1.5c0.5-0.6,1-1.3,1.3-2.1c0.3-0.8,0.5-1.5,0.5-2.3c0-0.6-0.1-1.2-0.4-1.6
			s-0.7-0.7-1.2-0.7c-0.5,0-1,0.2-1.5,0.5c-0.5,0.3-0.9,0.7-1.4,1.2c-0.4,0.5-0.8,1-1.1,1.5c-0.3,0.5-0.6,1-0.8,1.5
			c-0.3,1.5-0.7,2.9-1,4.3c-0.3,1.4-0.7,2.6-1,3.7c-0.3,1.1-0.6,2-0.9,2.7c-0.3,0.7-0.5,1.1-0.6,1.3c-0.1,0.1-0.2,0.1-0.3,0.1
			c-0.1,0-0.2-0.1-0.3-0.2c-0.1-0.1-0.2-0.2-0.3-0.4c-0.1-0.1-0.1-0.2-0.2-0.4c0-0.1-0.1-0.2-0.1-0.2c0.2-0.8,0.4-1.5,0.7-2.2
			c0.2-0.6,0.4-1.3,0.6-1.9c0.2-0.6,0.4-1.3,0.6-2.1c0.2-0.8,0.4-1.6,0.6-2.7c0.2-1,0.4-2.2,0.6-3.6c0.2-1.4,0.4-3.1,0.7-5
			c0-0.2,0.1-0.3,0.1-0.4c0.1-0.1,0.2-0.1,0.4-0.1c0.5,0,0.8,0.1,1.1,0.4c0.2,0.3,0.3,0.6,0.3,0.9c0,0.3-0.1,0.8-0.2,1.5
			c-0.1,0.7-0.3,1.5-0.5,2.5c0.2-0.5,0.5-1,0.9-1.5c0.3-0.5,0.7-1,1.1-1.4c0.4-0.4,0.9-0.8,1.4-1c0.5-0.3,1-0.4,1.6-0.4
			c0.9,0,1.5,0.3,2.1,0.9c0.5,0.6,0.8,1.4,0.8,2.4c0,0.8-0.2,1.6-0.5,2.4c-0.3,0.9-0.8,1.7-1.4,2.4s-1.3,1.3-2.1,1.8
			C257.6,56.2,256.7,56.5,255.7,56.5z"/>
		<path class="st3" d="M271.9,46.9c0,0.7-0.2,1.4-0.6,2.1c-0.4,0.7-1,1.2-1.7,1.7c-0.7,0.5-1.4,0.9-2.3,1.2
			c-0.8,0.3-1.7,0.5-2.5,0.6c0,0.2-0.1,0.4-0.1,0.6c0,0.2,0,0.3,0,0.5c0,0.3,0,0.6,0.1,0.9c0.1,0.3,0.2,0.6,0.4,0.8
			c0.2,0.2,0.4,0.4,0.7,0.6c0.3,0.1,0.7,0.2,1.1,0.2c0.6,0,1.2-0.1,1.8-0.4c0.6-0.3,1.2-0.6,1.7-1.1c0.6-0.5,1.1-1,1.6-1.7
			c0.5-0.6,0.9-1.3,1.3-2l0.3,0.3c-0.4,0.9-0.8,1.7-1.4,2.4c-0.6,0.7-1.1,1.3-1.8,1.8c-0.6,0.5-1.3,0.9-2,1.2
			c-0.7,0.3-1.4,0.4-2.1,0.4c-1.2,0-2-0.3-2.6-1c-0.6-0.7-0.9-1.5-0.9-2.4c0-0.6,0.1-1.2,0.3-1.8c0.2-0.6,0.5-1.3,0.8-1.9
			c0.4-0.6,0.8-1.2,1.2-1.8c0.5-0.6,1-1.1,1.5-1.5c0.5-0.4,1.1-0.8,1.7-1c0.6-0.3,1.1-0.4,1.7-0.4c0.4,0,0.8,0.1,1.2,0.4
			C271.7,45.7,271.9,46.2,271.9,46.9z M270.1,46.1c-0.5,0-0.9,0.2-1.5,0.5c-0.5,0.4-1,0.8-1.5,1.4c-0.5,0.6-0.9,1.2-1.3,1.9
			c-0.4,0.7-0.7,1.4-0.9,2.1c0.5-0.2,1.1-0.4,1.7-0.8c0.6-0.3,1.3-0.7,1.9-1.2c0.6-0.5,1.1-1,1.5-1.6c0.4-0.6,0.6-1.2,0.6-1.8
			c0-0.2,0-0.4-0.1-0.5C270.5,46.1,270.3,46.1,270.1,46.1z"/>
		<path class="st3" d="M271.7,55.5c0-0.1,0.1-0.4,0.3-0.9c0.2-0.5,0.4-1.2,0.7-1.9c0.2-0.7,0.5-1.5,0.7-2.3c0.2-0.8,0.3-1.5,0.3-2.2
			c0.1-0.1,0.3-0.3,0.5-0.4c0.2-0.1,0.5-0.2,0.8-0.2c0.5,0,0.8,0.3,0.8,0.8c0,0.3-0.1,0.8-0.3,1.6c-0.2,0.7-0.4,1.5-0.7,2.3
			c0.4-0.6,0.8-1.2,1.3-1.8c0.5-0.6,0.9-1.2,1.5-1.7c0.5-0.5,1-0.9,1.6-1.2c0.5-0.3,1.1-0.5,1.6-0.5c0.4,0,0.7,0.1,0.9,0.2
			c0.3,0.1,0.5,0.3,0.7,0.6s0.3,0.5,0.4,0.8c0.1,0.3,0.1,0.6,0.1,1c0,0.4-0.1,0.9-0.2,1.3c-0.1,0.4-0.3,0.8-0.4,1.2
			c-0.1,0.4-0.3,0.7-0.4,1.1c-0.1,0.4-0.2,0.7-0.2,1.1c0,0.4,0.1,0.7,0.2,0.9c0.2,0.2,0.4,0.2,0.6,0.2c0.4,0,0.7-0.1,1.1-0.4
			c0.4-0.3,0.7-0.6,1.1-1.1c0.3-0.4,0.7-0.9,1-1.5c0.3-0.5,0.6-1.1,0.9-1.6l0.3,0.4c-0.3,0.7-0.6,1.4-1,2c-0.4,0.6-0.7,1.1-1.1,1.6
			c-0.4,0.4-0.8,0.8-1.3,1c-0.5,0.2-1,0.4-1.5,0.4c-0.7,0-1.2-0.2-1.5-0.5c-0.3-0.4-0.5-0.8-0.5-1.3c0-0.3,0-0.6,0.1-0.9
			c0.1-0.3,0.2-0.7,0.3-1c0.1-0.4,0.2-0.7,0.3-1.1c0.1-0.4,0.1-0.7,0.1-1.1c0-0.5-0.1-0.9-0.3-1.1c-0.2-0.2-0.5-0.3-0.8-0.3
			c-0.6,0-1.2,0.3-1.8,0.8c-0.6,0.5-1.2,1.1-1.8,1.9c-0.6,0.8-1.1,1.5-1.6,2.4c-0.5,0.8-0.9,1.6-1.3,2.2c-0.3,0-0.6-0.1-0.9-0.2
			C272.1,55.9,271.9,55.7,271.7,55.5z"/>
		<path class="st3" d="M290.1,45.8c0.2,0,0.3,0.1,0.4,0.2c0.1,0.1,0.2,0.3,0.2,0.5c0,0.2-0.2,0.6-0.5,1.2c-0.3,0.5-0.7,1.1-1,1.8
			c-0.4,0.7-0.7,1.4-1,2.1c-0.3,0.8-0.5,1.5-0.5,2.2c0,0.7,0.1,1.2,0.3,1.4c0.2,0.2,0.6,0.4,1.1,0.4c0.3,0,0.7-0.1,1-0.2
			c0.3-0.2,0.7-0.4,1.1-0.8c0.4-0.4,0.7-0.8,1.1-1.4c0.4-0.6,0.8-1.3,1.2-2.1l0.3,0.3c-0.3,0.8-0.6,1.6-1,2.2
			c-0.4,0.7-0.9,1.2-1.4,1.6c-0.5,0.4-1,0.8-1.6,1c-0.6,0.2-1.1,0.3-1.7,0.3c-0.7,0-1.3-0.2-1.7-0.7c-0.4-0.5-0.5-1.1-0.5-1.7
			c0-0.4,0.1-0.8,0.2-1.4c0.1-0.5,0.3-1.1,0.5-1.7c0.2-0.6,0.4-1.2,0.7-1.8s0.5-1.2,0.8-1.6c0.3-0.5,0.6-0.9,1-1.2
			C289.4,45.9,289.8,45.8,290.1,45.8z M291.6,43c-0.3,0-0.6-0.1-0.8-0.2c-0.2-0.2-0.3-0.4-0.3-0.7c0-0.2,0.1-0.4,0.2-0.6
			c0.1-0.2,0.3-0.4,0.5-0.5c0.2-0.1,0.4-0.3,0.7-0.3c0.2-0.1,0.5-0.1,0.7-0.1c0.3,0,0.5,0.1,0.7,0.2c0.2,0.1,0.3,0.4,0.3,0.7
			c0,0.2-0.1,0.4-0.2,0.6c-0.1,0.2-0.2,0.4-0.4,0.5c-0.2,0.1-0.4,0.3-0.6,0.4C292,43,291.8,43,291.6,43z"/>
		<path class="st3" d="M291.9,55.5c0-0.1,0.1-0.4,0.3-0.9c0.2-0.5,0.4-1.2,0.7-1.9c0.2-0.7,0.5-1.5,0.7-2.3c0.2-0.8,0.3-1.5,0.3-2.2
			c0.1-0.1,0.3-0.3,0.5-0.4c0.2-0.1,0.5-0.2,0.8-0.2c0.5,0,0.8,0.3,0.8,0.8c0,0.3-0.1,0.8-0.3,1.6c-0.2,0.7-0.4,1.5-0.7,2.3
			c0.4-0.6,0.8-1.2,1.3-1.8c0.5-0.6,0.9-1.2,1.5-1.7c0.5-0.5,1-0.9,1.6-1.2c0.5-0.3,1.1-0.5,1.6-0.5c0.4,0,0.7,0.1,0.9,0.2
			c0.3,0.1,0.5,0.3,0.7,0.6s0.3,0.5,0.4,0.8c0.1,0.3,0.1,0.6,0.1,1c0,0.4-0.1,0.9-0.2,1.3c-0.1,0.4-0.3,0.8-0.4,1.2
			c-0.1,0.4-0.3,0.7-0.4,1.1c-0.1,0.4-0.2,0.7-0.2,1.1c0,0.4,0.1,0.7,0.2,0.9c0.2,0.2,0.4,0.2,0.6,0.2c0.4,0,0.7-0.1,1.1-0.4
			c0.4-0.3,0.7-0.6,1.1-1.1c0.3-0.4,0.7-0.9,1-1.5c0.3-0.5,0.6-1.1,0.9-1.6l0.3,0.4c-0.3,0.7-0.6,1.4-1,2c-0.4,0.6-0.7,1.1-1.1,1.6
			c-0.4,0.4-0.8,0.8-1.3,1c-0.5,0.2-1,0.4-1.5,0.4c-0.7,0-1.2-0.2-1.5-0.5c-0.3-0.4-0.5-0.8-0.5-1.3c0-0.3,0-0.6,0.1-0.9
			c0.1-0.3,0.2-0.7,0.3-1c0.1-0.4,0.2-0.7,0.3-1.1c0.1-0.4,0.1-0.7,0.1-1.1c0-0.5-0.1-0.9-0.3-1.1c-0.2-0.2-0.5-0.3-0.8-0.3
			c-0.6,0-1.2,0.3-1.8,0.8c-0.6,0.5-1.2,1.1-1.8,1.9c-0.6,0.8-1.1,1.5-1.6,2.4c-0.5,0.8-0.9,1.6-1.3,2.2c-0.3,0-0.6-0.1-0.9-0.2
			C292.3,55.9,292.1,55.7,291.9,55.5z"/>
		<path class="st3" d="M314.7,47.1c-0.2-0.3-0.6-0.4-1.1-0.4c-0.7,0-1.5,0.2-2.1,0.7c-0.7,0.5-1.3,1-1.8,1.7c-0.5,0.7-1,1.4-1.3,2.2
			c-0.3,0.8-0.5,1.5-0.5,2.1c0,0.5,0.1,0.8,0.3,1.1c0.2,0.2,0.4,0.4,0.7,0.4c0.3,0,0.6-0.1,0.9-0.3c0.3-0.2,0.7-0.5,1.1-0.8
			c0.4-0.4,0.7-0.8,1.1-1.2c0.4-0.5,0.8-1,1.1-1.5l0.3-1.6c0-0.1,0.1-0.3,0.1-0.5c0.1-0.2,0.2-0.3,0.3-0.5c0.1-0.1,0.3-0.3,0.4-0.4
			c0.2-0.1,0.4-0.2,0.6-0.2c0.2,0,0.4,0,0.6,0.1c0,0.2-0.1,0.6-0.2,1.2c-0.1,0.5-0.3,1.2-0.4,1.9c-0.2,0.7-0.4,1.5-0.7,2.4
			c-0.3,0.8-0.6,1.7-0.9,2.6c0.5-0.2,0.9-0.5,1.4-0.9c0.5-0.3,0.9-0.7,1.3-1.1c0.4-0.4,0.8-0.9,1.1-1.4c0.3-0.5,0.6-1,0.8-1.6
			l0.4,0.3c-0.2,0.7-0.6,1.3-1,1.9c-0.4,0.6-0.9,1.1-1.4,1.6c-0.5,0.5-1,0.9-1.5,1.2c-0.5,0.4-1,0.6-1.5,0.8c-0.4,1-0.8,1.9-1.2,2.8
			c-0.4,0.9-0.9,1.6-1.3,2.3s-0.9,1.2-1.4,1.5c-0.5,0.4-1,0.6-1.5,0.6c-0.4,0-0.8-0.1-1.1-0.4c-0.3-0.3-0.5-0.7-0.5-1.3
			c0-0.6,0.2-1.1,0.5-1.6c0.4-0.5,0.8-1,1.4-1.4c0.6-0.4,1.1-0.8,1.8-1.2c0.6-0.4,1.3-0.7,1.9-1c0.3-0.7,0.5-1.4,0.8-2.2
			c0.2-0.8,0.5-1.7,0.7-2.6c-0.7,1.1-1.5,2-2.3,2.7c-0.8,0.7-1.6,1.1-2.4,1.1c-0.7,0-1.2-0.3-1.6-0.8c-0.4-0.5-0.6-1.2-0.6-2.1
			c0-1,0.2-2,0.7-2.9c0.5-0.9,1.1-1.7,1.9-2.4c0.8-0.7,1.6-1.2,2.4-1.7c0.9-0.4,1.7-0.6,2.5-0.6c0.6,0,0.9,0.1,1.2,0.3
			c0.2,0.2,0.4,0.4,0.4,0.7c0,0.2,0,0.3-0.1,0.4C314.8,47,314.7,47,314.7,47.1z M307.3,63c0.2,0,0.4-0.1,0.7-0.3
			c0.3-0.2,0.6-0.5,0.9-0.9c0.3-0.4,0.6-0.9,1-1.6c0.4-0.7,0.7-1.5,1.1-2.4c-0.6,0.3-1.1,0.6-1.6,0.9c-0.5,0.3-1,0.6-1.4,1
			c-0.4,0.3-0.7,0.7-1,1.1c-0.2,0.4-0.4,0.8-0.4,1.2c0,0.3,0.1,0.6,0.2,0.7C306.9,62.9,307.1,63,307.3,63z"/>
	</g>
</g>
<g>
	<path class="st3" d="M144.3,59.6c0.7,0,1.6-0.4,2.6-1.2c1-0.8,2-1.8,3.1-3.1c1.1-1.3,2.1-2.8,3.1-4.4c1-1.7,1.9-3.4,2.7-5.2
		c0.8-1.8,1.4-3.5,1.9-5.3c0.5-1.7,0.7-3.3,0.7-4.8c0-1.3-0.2-2.3-0.6-2.9c-0.4-0.6-0.9-1-1.6-1.2c0.4-0.6,0.8-1.1,1.2-1.4
		c0.4-0.3,0.8-0.4,1.1-0.4c0.6,0,1.1,0.4,1.6,1.1c0.5,0.7,0.8,1.8,0.8,3.4c0,1.5-0.3,3.1-0.8,5c-0.6,1.9-1.3,3.8-2.2,5.8
		c-0.9,2-2,3.9-3.2,5.8c-1.2,1.9-2.4,3.6-3.7,5.1c-1.3,1.5-2.6,2.7-3.9,3.6c-1.3,0.9-2.5,1.4-3.6,1.4c-0.3,0-0.6,0-1-0.1
		c-0.4-0.1-0.8-0.2-1.1-0.5c-0.4-0.2-0.7-0.6-0.9-1c-0.3-0.4-0.4-1-0.4-1.6c0-1,0.3-2.3,0.8-4c0.5-1.7,1.1-3.6,1.7-5.6
		c0.6-2,1.2-4.2,1.7-6.4c0.5-2.2,0.8-4.3,0.8-6.3c0-0.7,0-1.4,0-2.1c0-0.7-0.1-1.3-0.3-1.8c-0.2-0.5-0.4-0.9-0.7-1.2
		c-0.3-0.3-0.8-0.5-1.4-0.5c-0.7,0-1.4,0.2-1.9,0.7c-0.5,0.5-0.9,1-1.3,1.7c-0.3,0.7-0.6,1.4-0.7,2.2c-0.1,0.8-0.2,1.5-0.2,2.2
		c0,0.9,0.1,1.6,0.4,2.2c-1,0-1.8-0.3-2.2-0.9c-0.4-0.6-0.6-1.2-0.6-2c0-0.8,0.2-1.7,0.6-2.5c0.4-0.8,0.9-1.6,1.6-2.3
		c0.7-0.7,1.4-1.2,2.3-1.7c0.9-0.4,1.8-0.7,2.8-0.7c1.7,0,2.9,0.6,3.7,1.9c0.8,1.3,1.2,3,1.2,5.2c0,1.9-0.3,4-0.8,6.1
		c-0.5,2.1-1.1,4.2-1.8,6.2c-0.7,2-1.2,3.9-1.8,5.6c-0.5,1.7-0.8,3.2-0.8,4.3c0,0.5,0.1,0.8,0.2,1.1
		C143.6,59.5,143.9,59.6,144.3,59.6z"/>
	<path class="st3" d="M177.8,29.9c-1,0-1.9,0.3-3,1c-1,0.7-2,1.6-3,2.7c-1,1.1-1.9,2.4-2.8,3.9c-0.9,1.5-1.7,3-2.3,4.6
		c-0.7,1.6-1.2,3.3-1.6,4.9c-0.4,1.7-0.6,3.2-0.6,4.7c0,1,0.1,1.9,0.3,2.9c0.2,0.9,0.5,1.8,1,2.5c0.5,0.7,1,1.3,1.7,1.7
		c0.7,0.4,1.6,0.6,2.6,0.6c1.1,0,2.1-0.2,3.2-0.7c1.1-0.5,2.1-1.1,3-1.9c1-0.8,1.8-1.7,2.6-2.7c0.8-1,1.5-2.1,2-3.3l0.6,0.4
		c-0.7,1.3-1.4,2.5-2.3,3.7c-0.9,1.2-1.8,2.2-2.9,3c-1,0.9-2.2,1.5-3.4,2.1c-1.2,0.5-2.5,0.8-3.8,0.8c-1.4,0-2.6-0.3-3.6-0.8
		c-1-0.6-1.8-1.3-2.4-2.2c-0.6-0.9-1.1-2-1.4-3.1c-0.3-1.2-0.4-2.3-0.4-3.6c0-1.8,0.2-3.5,0.7-5.3c0.5-1.8,1.1-3.5,1.9-5.2
		c0.8-1.6,1.7-3.2,2.8-4.7c1.1-1.5,2.2-2.7,3.4-3.8c1.2-1.1,2.5-1.9,3.8-2.5c1.3-0.6,2.6-0.9,3.9-0.9c1.1,0,2,0.3,2.7,0.8
		c0.7,0.5,1,1.4,1,2.7c0,0.8-0.1,1.6-0.4,2.6c-0.3,1-0.6,1.9-1.1,2.8c-0.4,0.9-0.9,1.6-1.5,2.2c-0.5,0.6-1.1,0.9-1.7,0.9
		c-0.2,0-0.4-0.1-0.7-0.2c-0.2-0.1-0.4-0.4-0.6-0.7c0.4-0.5,0.9-1,1.4-1.7c0.5-0.7,1-1.4,1.4-2.1c0.4-0.7,0.8-1.5,1.1-2.2
		c0.3-0.7,0.4-1.4,0.4-2c0-0.5-0.2-1-0.5-1.3C179,30.1,178.5,29.9,177.8,29.9z"/>
</g>
</svg>
